<svg xmlns="http://www.w3.org/2000/svg" version="1.1" viewBox="-5.0 -10.0 110.0 135.0">
 <path d="m81.379 69.711c1.9102-2.9688 2.793-6.4844 2.5156-10.004-0.4375-11.051-14.746-17.035-15.355-17.285-0.74219-0.30469-1.5938 0.011719-1.9531 0.73047-0.35938 0.71875-0.10547 1.5938 0.58203 2.0039 4.7031 2.8242 8.4062 8.2773 9.0078 13.266v0.003906c0.23828 1.7461 0.007813 3.5273-0.66797 5.1562l-9.4648-8.9102 3.0156-3.1289 0.003906 0.003906c0.34766-0.35938 0.49609-0.86328 0.40625-1.3516-0.09375-0.48828-0.41406-0.90234-0.86719-1.1094l-6.0273-2.7891h0.003906c-0.58203-0.26953-1.2734-0.14844-1.7266 0.30469l-8.7422 8.6641c-0.59375 0.58594-0.60547 1.543-0.03125 2.1484l4.5234 4.7461c0.28906 0.30469 0.6875 0.47656 1.1055 0.47656h0.003907c0.41797 0 0.81641-0.16797 1.1055-0.46875l2.1719-2.2539 8.2227 8.2188c-5.3203 0.19922-11.254-4.8633-11.332-4.9297-0.58984-0.51172-1.4648-0.5-2.043 0.027344l-2.5273 2.3086-6.3633 4.9727c-1.4453 1.0938-2.0273 2.9844-1.4492 4.6992 0.57422 1.7188 2.1836 2.875 3.9922 2.875 0.14062 0 0.28125-0.007813 0.42188-0.023438 1.1836-0.11719 2.2656-0.73047 2.9727-1.6914l4.6367-5.582c2.3711 2.1836 5.3867 4.5742 10.324 4.9492v0.003907c2.6055 0.17578 5.2148-0.25781 7.625-1.2695l4.9883 5.0156h-0.003906c0.28906 0.29297 0.67969 0.45312 1.0898 0.45312h0.023437c0.41797-0.003906 0.8125-0.17969 1.0977-0.48438l3.207-3.4297c0.57812-0.62109 0.54688-1.5898-0.070313-2.1719zm-23.66-10.828-2.375-2.4961 6.9141-6.8516 3.0977 1.4336zm5.4062-1.1797 0.78906-0.82031 9.8477 9.2734c-0.027344 0.027344-0.046875 0.054688-0.074219 0.078125l-0.003906 0.003906c-0.33984 0.33984-0.71875 0.64062-1.125 0.90234zm-5.8438 9.3203h-0.003906c-0.42188 0.027343-0.8125 0.22656-1.082 0.55078l-5.707 6.8711c-0.023437 0.027344-0.046875 0.058594-0.066406 0.085938v0.003906c-0.19531 0.27344-0.5 0.44531-0.83594 0.47266-0.33203 0.03125-0.66406-0.089843-0.90234-0.32422-0.23828-0.23828-0.35938-0.56641-0.33203-0.90234 0.023438-0.33203 0.19531-0.64062 0.46484-0.83594l6.4297-5.0234c0.03125-0.023437 0.0625-0.050781 0.089844-0.074219l1.6016-1.4648c0.30469 0.23047 0.66406 0.49609 1.0742 0.77734h0.003906c-0.23047-0.10547-0.48438-0.15234-0.73828-0.13672zm10.793 5.6523c-4.4219-0.33594-6.8711-2.6367-9.2383-4.8594l-0.39453-0.36719c4 2.6641 11.797 6.5352 17.41 0.96875h-0.003906c0.41016-0.41406 0.78906-0.85156 1.1328-1.3203l0.011719-0.007812c0.09375-0.10156 0.16797-0.21094 0.23047-0.33203 1.7383-2.5469 2.4531-5.6523 2.0039-8.7031-0.25391-1.9453-0.8125-3.8398-1.6523-5.6172 1.8984 2.0195 3.0469 4.6289 3.25 7.3906 0.16406 4.1797-0.92578 7.4336-3.2422 9.6641-2.6094 2.3008-6.0391 3.4492-9.5078 3.1836zm13.438 3.5195-3.2578-3.2734v-0.003906c0.38281-0.27734 0.75391-0.57422 1.1055-0.89453l3.2227 3.0234z"/>
 <path d="m94.676 15.473c-0.007812-0.046875-0.011719-0.09375-0.023437-0.14062-0.011719-0.046875-0.027344-0.097656-0.042969-0.14453s-0.035156-0.097656-0.054687-0.14062c-0.019532-0.042969-0.042969-0.082031-0.066407-0.125l-0.003906 0.003906c-0.027344-0.050781-0.058594-0.09375-0.089844-0.14062-0.011719-0.015625-0.019531-0.03125-0.03125-0.046875-0.015625-0.023437-0.039062-0.039062-0.058593-0.058593-0.035157-0.042969-0.070313-0.082032-0.11328-0.11719-0.035156-0.035156-0.074218-0.0625-0.11328-0.09375-0.039063-0.027344-0.078125-0.058594-0.12109-0.082031-0.042969-0.027344-0.085937-0.050781-0.13281-0.070313-0.046875-0.023437-0.089844-0.039062-0.13281-0.058594-0.046875-0.019531-0.097656-0.035156-0.14844-0.046874-0.046875-0.011719-0.089844-0.023438-0.14062-0.03125l0.003906 0.003906c-0.054688-0.011719-0.10938-0.015625-0.16797-0.019532-0.027343 0-0.050781-0.007812-0.078125-0.007812h-86.32c-0.84766 0-1.5352 0.6875-1.5391 1.5391v68.613c0 0.019531 0.003907 0.039062 0.003907 0.058594l0.003906-0.003907c0.003906 0.054688 0.007812 0.10938 0.015625 0.16406 0.007812 0.046875 0.011719 0.09375 0.023437 0.14062 0.011719 0.046875 0.027344 0.097656 0.042969 0.14453s0.035156 0.097656 0.054687 0.14062c0.019532 0.042969 0.042969 0.082031 0.066407 0.125l0.003906-0.003906c0.027344 0.050781 0.058594 0.09375 0.089844 0.14062 0.011719 0.015625 0.019531 0.03125 0.03125 0.046875 0.015625 0.019531 0.035156 0.03125 0.050781 0.050781 0.042969 0.050781 0.09375 0.10156 0.14844 0.14844 0.03125 0.027343 0.0625 0.054687 0.097656 0.078124v0.003907c0.054687 0.039062 0.11328 0.074219 0.17188 0.10547 0.035156 0.019531 0.066406 0.039062 0.10156 0.054687l0.003907 0.003906c0.070312 0.03125 0.14453 0.054688 0.22266 0.074219 0.027344 0.007812 0.050781 0.019531 0.078125 0.023438l0.003906 0.003906c0.10547 0.023437 0.21484 0.035156 0.32422 0.035156h86.32c0.84766 0 1.5352-0.6875 1.5391-1.5352v-68.613c0-0.019531-0.003907-0.039062-0.003907-0.058593h-0.003906c-0.003906-0.054688-0.007812-0.10938-0.015625-0.16406zm-86.301 64.586h1.3398l-1.3398 1.0664zm5.1836-3.0508v-0.003906c-0.066406-0.007812-0.13281-0.015625-0.19922-0.019531h-4.9844v-5.5977h12.25zm10.934-8.6914h-16.117v-5.5977h23.156zm10.906-8.6719h-27.023v-5.5977h34.066zm10.906-8.6719-37.93 0.003906v-5.5977h44.973zm10.906-8.6719-13.391 0.003907v-5.5977h20.438zm10.906-8.6719-24.297 0.007813v-5.5977h31.344zm10.906-8.6719-35.203 0.007813v-7.7344h44.941zm-38.281-7.7344 0.007812 25.082h-32.375v-25.074zm-29.504 65.547 80.387-63.895v63.895z"/>
 <path d="m11.426 23.445 1.3906-0.73047 1.3945 0.73047-0.26953-1.5469 1.1289-1.0977-1.5586-0.23047-0.69531-1.4102-0.69531 1.4102-1.5586 0.23047 1.1289 1.0977z"/>
 <path d="m17.426 23.445 1.3906-0.73047 1.3945 0.73047-0.26953-1.5469 1.1289-1.0977-1.5586-0.23047-0.69531-1.4102-0.69531 1.4102-1.5586 0.23047 1.1289 1.0977z"/>
 <path d="m23.426 23.445 1.3906-0.73047 1.3945 0.73047-0.26563-1.5469 1.125-1.0977-1.5547-0.23047-0.69922-1.4102-0.69531 1.4102-1.5547 0.23047 1.125 1.0977z"/>
 <path d="m29.426 23.445 1.3945-0.73047 1.3906 0.73047-0.26563-1.5469 1.125-1.0977-1.5547-0.23047-0.69531-1.4102-0.69922 1.4102-1.5547 0.23047 1.125 1.0977z"/>
 <path d="m35.426 23.445 1.3945-0.73047 1.3906 0.73047-0.26563-1.5469 1.125-1.0977-1.5547-0.23047-0.69531-1.4102-0.69922 1.4102-1.5547 0.23047 1.125 1.0977z"/>
 <path d="m11.426 29.066 1.3906-0.73438 1.3945 0.73438-0.26953-1.5508 1.1289-1.0977-1.5586-0.22656-0.69531-1.4102-0.69531 1.4102-1.5586 0.22656 1.1289 1.0977z"/>
 <path d="m17.426 29.066 1.3906-0.73438 1.3945 0.73438-0.26953-1.5508 1.1289-1.0977-1.5586-0.22656-0.69531-1.4102-0.69531 1.4102-1.5586 0.22656 1.1289 1.0977z"/>
 <path d="m23.426 29.066 1.3906-0.73438 1.3945 0.73438-0.26563-1.5508 1.125-1.0977-1.5547-0.22656-0.69922-1.4102-0.69531 1.4102-1.5547 0.22656 1.125 1.0977z"/>
 <path d="m29.426 29.066 1.3945-0.73438 1.3906 0.73438-0.26563-1.5508 1.125-1.0977-1.5547-0.22656-0.69531-1.4102-0.69922 1.4102-1.5547 0.22656 1.125 1.0977z"/>
 <path d="m35.426 29.066 1.3945-0.73438 1.3906 0.73438-0.26563-1.5508 1.125-1.0977-1.5547-0.22656-0.69531-1.4102-0.69922 1.4102-1.5547 0.22656 1.125 1.0977z"/>
 <path d="m11.426 34.684 1.3906-0.73047 1.3945 0.73047-0.26953-1.5508 1.1289-1.0977-1.5586-0.22656-0.69531-1.4102-0.69531 1.4102-1.5586 0.22656 1.1289 1.0977z"/>
 <path d="m17.426 34.684 1.3906-0.73047 1.3945 0.73047-0.26953-1.5508 1.1289-1.0977-1.5586-0.22656-0.69531-1.4102-0.69531 1.4102-1.5586 0.22656 1.1289 1.0977z"/>
 <path d="m23.426 34.684 1.3906-0.73047 1.3945 0.73047-0.26563-1.5508 1.125-1.0977-1.5547-0.22656-0.69922-1.4102-0.69531 1.4102-1.5547 0.22656 1.125 1.0977z"/>
 <path d="m29.426 34.684 1.3945-0.73047 1.3906 0.73047-0.26563-1.5508 1.125-1.0977-1.5547-0.22656-0.69531-1.4102-0.69922 1.4102-1.5547 0.22656 1.125 1.0977z"/>
 <path d="m35.426 34.684 1.3945-0.73047 1.3906 0.73047-0.26563-1.5508 1.125-1.0977-1.5547-0.22656-0.69531-1.4102-0.69922 1.4102-1.5547 0.22656 1.125 1.0977z"/>
 <path d="m11.426 40.301 1.3906-0.73047 1.3945 0.73047-0.26953-1.5469 1.1289-1.1016-1.5586-0.22266-0.69531-1.4141-0.69531 1.4141-1.5586 0.22266 1.1289 1.1016z"/>
 <path d="m17.426 40.301 1.3906-0.73047 1.3945 0.73047-0.26953-1.5469 1.1289-1.1016-1.5586-0.22266-0.69531-1.4141-0.69531 1.4141-1.5586 0.22266 1.1289 1.1016z"/>
 <path d="m23.426 40.301 1.3906-0.73047 1.3945 0.73047-0.26563-1.5469 1.125-1.1016-1.5547-0.22266-0.69922-1.4141-0.69531 1.4141-1.5547 0.22266 1.125 1.1016z"/>
 <path d="m29.426 40.301 1.3945-0.73047 1.3906 0.73047-0.26563-1.5469 1.125-1.1016-1.5547-0.22266-0.69531-1.4141-0.69922 1.4141-1.5547 0.22266 1.125 1.1016z"/>
 <path d="m35.426 40.301 1.3945-0.73047 1.3906 0.73047-0.26563-1.5469 1.125-1.1016-1.5547-0.22266-0.69531-1.4141-0.69922 1.4141-1.5547 0.22266 1.125 1.1016z"/>
<text x="0.0" y="117.5" font-size="5.0" font-weight="bold" font-family="Arbeit Regular, Helvetica, Arial-Unicode, Arial, Sans-serif" fill="#000000">Created by Aidan Stonehouse</text><text x="0.0" y="122.5" font-size="5.0" font-weight="bold" font-family="Arbeit Regular, Helvetica, Arial-Unicode, Arial, Sans-serif" fill="#000000">from Noun Project</text></svg>